<svg xmlns="http://www.w3.org/2000/svg" width="1200" height="630" viewBox="0 0 1200 630" role="img" aria-labelledby="title desc">
  <title id="title">Sekumpulan Anak UPI</title>
  <desc id="desc">Default Open Graph image for Sekumpulan Anak UPI.</desc>
  <defs>
    <linearGradient id="bg" x1="0" y1="0" x2="1" y2="1">
      <stop offset="0%" stop-color="#0f4c81" />
      <stop offset="55%" stop-color="#1769aa" />
      <stop offset="100%" stop-color="#f59e0b" />
    </linearGradient>
    <radialGradient id="orb1" cx="25%" cy="20%" r="55%">
      <stop offset="0%" stop-color="#ffffff" stop-opacity="0.28" />
      <stop offset="100%" stop-color="#ffffff" stop-opacity="0" />
    </radialGradient>
    <radialGradient id="orb2" cx="78%" cy="78%" r="45%">
      <stop offset="0%" stop-color="#fef3c7" stop-opacity="0.34" />
      <stop offset="100%" stop-color="#fef3c7" stop-opacity="0" />
    </radialGradient>
    <filter id="shadow" x="-20%" y="-20%" width="140%" height="140%">
      <feDropShadow dx="0" dy="24" stdDeviation="28" flood-color="#082f49" flood-opacity="0.28" />
    </filter>
  </defs>

  <rect width="1200" height="630" fill="url(#bg)" />
  <rect width="1200" height="630" fill="url(#orb1)" />
  <rect width="1200" height="630" fill="url(#orb2)" />

  <circle cx="1040" cy="95" r="78" fill="#ffffff" opacity="0.12" />
  <circle cx="110" cy="530" r="120" fill="#ffffff" opacity="0.10" />
  <circle cx="1010" cy="500" r="170" fill="#fbbf24" opacity="0.16" />

  <g filter="url(#shadow)">
    <rect x="86" y="92" width="1028" height="446" rx="42" fill="#ffffff" opacity="0.94" />
  </g>

  <g transform="translate(140 145)">
    <rect x="0" y="0" width="154" height="154" rx="36" fill="#0f4c81" />
    <circle cx="77" cy="62" r="32" fill="#fbbf24" />
    <path d="M34 126c9-34 26-51 43-51s34 17 43 51" fill="none" stroke="#ffffff" stroke-width="18" stroke-linecap="round" />
    <text x="198" y="54" font-family="Inter, Segoe UI, Arial, sans-serif" font-size="34" font-weight="700" fill="#f59e0b" letter-spacing="4">SA UPI</text>
    <text x="198" y="127" font-family="Inter, Segoe UI, Arial, sans-serif" font-size="70" font-weight="800" fill="#0f172a">Sekumpulan</text>
    <text x="198" y="205" font-family="Inter, Segoe UI, Arial, sans-serif" font-size="70" font-weight="800" fill="#0f172a">Anak UPI</text>
    <text x="0" y="300" font-family="Inter, Segoe UI, Arial, sans-serif" font-size="32" font-weight="500" fill="#334155">Portal komunitas untuk info kampus, jurusan, wiki, FAQ, dan karier warga UPI.</text>
  </g>

  <g transform="translate(142 495)">
    <rect x="0" y="0" width="252" height="44" rx="22" fill="#e0f2fe" />
    <text x="28" y="30" font-family="Inter, Segoe UI, Arial, sans-serif" font-size="20" font-weight="700" fill="#075985">anakupi.my.id</text>
  </g>
</svg>
